<svg width="16" height="12" viewBox="0 0 16 12" fill="none" xmlns="http://www.w3.org/2000/svg">
<path d="M15.3651 6.25932L10.3851 10.951C10.2251 11.1012 10.0251 11.1762 9.82509 11.1762C9.62509 11.1762 9.42509 11.1012 9.26509 10.951C8.94509 10.6508 8.94509 10.1816 9.26509 9.88133L12.8851 6.46575H1.20509C0.76509 6.46575 0.40509 6.12795 0.40509 5.71508C0.40509 5.3022 0.76509 4.9644 1.20509 4.9644H12.8851L9.26509 1.54883C8.94509 1.24855 8.94509 0.77938 9.26509 0.479109C9.58509 0.178839 10.0851 0.178839 10.4051 0.479109L15.3851 5.17084C15.6851 5.48987 15.6851 5.97781 15.3651 6.25932Z" fill="black"/>
</svg>
