<svg width="20" height="20" viewBox="0 0 20 20" fill="none" xmlns="http://www.w3.org/2000/svg">
<path fill-rule="evenodd" clip-rule="evenodd" d="M10.9741 18.5413C13.0898 17.0976 17.9167 13.3048 17.9167 8.74992C17.9167 4.37766 14.3723 0.833252 10.0001 0.833252C5.62781 0.833252 2.0834 4.37766 2.0834 8.74992C2.0834 13.3048 6.91032 17.0976 9.02602 18.5413C9.61765 18.945 10.3825 18.945 10.9741 18.5413ZM10.0001 11.2499C11.3808 11.2499 12.5001 10.1306 12.5001 8.74992C12.5001 7.36921 11.3808 6.24992 10.0001 6.24992C8.61935 6.24992 7.50007 7.36921 7.50007 8.74992C7.50007 10.1306 8.61935 11.2499 10.0001 11.2499Z" fill="#898989"/>
</svg>
