<svg width="20" height="20" viewBox="0 0 20 20" fill="none" xmlns="http://www.w3.org/2000/svg">
<path d="M13.4308 13.0668L12.9153 13.8401C12.8124 13.9944 12.6763 14.1261 12.497 14.1735C11.9095 14.3287 10.35 14.3988 7.97557 12.0244C5.60117 9.65004 5.67125 8.09046 5.82648 7.50302C5.87386 7.32368 6.00556 7.1876 6.1599 7.0847L6.93315 6.5692C7.50885 6.1854 7.66441 5.40757 7.28061 4.83187L5.82021 2.64126C5.48521 2.13876 4.8394 1.94678 4.2843 2.18468L3.62551 2.46702C3.12505 2.6815 2.71681 3.06643 2.47331 3.55343C2.26987 3.96031 2.1122 4.38877 2.09083 4.84317C2.02351 6.27515 2.3375 9.80312 6.26719 13.7328C10.1969 17.6625 13.7248 17.9765 15.1568 17.9092C15.6112 17.8878 16.0397 17.7301 16.4465 17.5267C16.9335 17.2832 17.3185 16.8749 17.533 16.3745L17.8153 15.7157C18.0532 15.1606 17.8612 14.5148 17.3587 14.1798L15.1681 12.7194C14.5924 12.3356 13.8146 12.4911 13.4308 13.0668Z" fill="#898989"/>
</svg>
